<?xml version="1.0" encoding="utf-8"?>
<!-- Generator: Adobe Illustrator 25.2.3, SVG Export Plug-In . SVG Version: 6.00 Build 0)  -->
<svg version="1.1" id="Layer_1" xmlns="http://www.w3.org/2000/svg" xmlns:xlink="http://www.w3.org/1999/xlink" x="0px" y="0px"
	 viewBox="0 0 143 32" style="enable-background:new 0 0 143 32;" xml:space="preserve">
<style type="text/css">
	.st0{fill:none;}
	.st1{fill:#FFFFFF;}
</style>
<path class="st0" d="M0,0"/>
<path class="st0" d="M0,0"/>
<g>
	<g>
		<path class="st1" d="M48,11.6h2.5l1,3.7l0.4,1.4h0.1l0.3-1.4l1-3.7h2.5V22h-2v-3.2c0-1.2,0.2-3.7,0.3-4.8h0l-0.8,2.8l-0.8,2.5
			h-1.1l-0.8-2.5l-0.7-2.8h-0.1c0.1,1.1,0.3,3.7,0.3,4.8V22h-2V11.6z"/>
		<path class="st1" d="M57.7,19v-4.9h2.4v4.6c0,1.1,0.3,1.5,1.2,1.5c0.6,0,1-0.2,1.5-0.9v-5.2h2.4V22h-1.9L63,20.9h-0.1
			c-0.7,0.8-1.5,1.3-2.7,1.3C58.5,22.2,57.7,21,57.7,19z"/>
		<path class="st1" d="M67.5,10.8h2.4v6.5h0.1l2.9-3.2h2.6L69.9,20v2h-2.4V10.8z M70.8,18.4l1.4-1.5l3.5,5.1h-2.6L70.8,18.4z"/>
		<path class="st1" d="M76.9,19v-4.9h2.4v4.6c0,1.1,0.3,1.5,1.2,1.5c0.6,0,1-0.2,1.5-0.9v-5.2h2.4V22h-1.9l-0.2-1.1h-0.1
			c-0.7,0.8-1.5,1.3-2.7,1.3C77.7,22.2,76.9,21,76.9,19z"/>
		<path class="st1" d="M88.8,18.9v-6.3h-2.5v-1.8h4.9V19c0,1,0.6,1.3,1.3,1.3c0.4,0,0.8-0.1,1.2-0.3l0.5,1.7
			c-0.8,0.3-1.4,0.4-2.4,0.4C89.8,22.2,88.8,20.9,88.8,18.9z"/>
		<path class="st1" d="M105.8,11.6h3.7c2.2,0,4,0.8,4,3.2c0,2.4-1.8,3.4-4,3.4h-1.3V22h-2.4V11.6z M109.3,16.4
			c1.2,0,1.9-0.5,1.9-1.6c0-1-0.7-1.4-1.9-1.4h-1.2v2.9H109.3z M110.7,16.1l3.3,5.9h-2.6l-2.3-4.4L110.7,16.1z"/>
		<path class="st1" d="M115.3,19.8c0-1.8,1.5-2.7,5.2-2.9c-0.1-0.7-0.6-1.1-1.7-1.1c-0.8,0-1.5,0.3-2.4,0.7l-0.8-1.5
			c1.1-0.6,2.4-1.1,3.7-1.1c2.2,0,3.6,1.2,3.6,3.6V22h-1.9l-0.2-0.9h-0.1c-0.8,0.6-1.8,1.1-2.8,1.1
			C116.3,22.2,115.3,21.1,115.3,19.8z M120.5,19.6v-1.3c-2.3,0.1-3,0.6-3,1.3c0,0.5,0.4,0.8,1.1,0.8
			C119.3,20.4,119.9,20.1,120.5,19.6z"/>
		<path class="st1" d="M128.4,15.9h-3.2v-1.8h5.6V22h-2.4V15.9z M127.9,11.4c0-0.9,0.7-1.5,1.6-1.5c0.9,0,1.6,0.6,1.6,1.5
			c0,0.9-0.7,1.4-1.6,1.4C128.5,12.8,127.9,12.3,127.9,11.4z"/>
	</g>
</g>
</svg>
